<svg xmlns="http://www.w3.org/2000/svg" viewBox="0 0 41.15 41.15"><defs><style>.cls-1,.cls-2{fill:none;stroke-miterlimit:10;}.cls-1{stroke:#fff;stroke-width:5.01px;}.cls-2{stroke:#010101;stroke-width:2.5px;}</style></defs><title>Moon_1</title><g id="Layer_2" data-name="Layer 2"><g id="Layer_1-2" data-name="Layer 1"><path class="cls-1" d="M27.82,25.42A6.74,6.74,0,0,1,25,22.18,5.25,5.25,0,0,1,25,19a6.74,6.74,0,0,1,2.79-3.24c1.83-1.34,9.31-4.88,10.43-6.11.52-.57.56-1,0-1.43-.24-.21-.85-.83-1.1-1A22.58,22.58,0,0,0,23.42,2.51,21,21,0,0,0,18.76,3,20.76,20.76,0,0,0,5.9,10.74a16.25,16.25,0,0,0-3.37,9c0,.27,0,.8,0,.8h0s0,0,0,.07,0,0,0,.07h0s0,.53,0,.8a16.25,16.25,0,0,0,3.37,9,20.76,20.76,0,0,0,12.86,7.77,21,21,0,0,0,4.65.46A22.58,22.58,0,0,0,37.13,34c.25-.19.86-.82,1.1-1,.58-.48.54-.86,0-1.43C37.13,30.3,29.65,26.76,27.82,25.42Z"/><path class="cls-2" d="M27.82,25.42A6.74,6.74,0,0,1,25,22.18,5.25,5.25,0,0,1,25,19a6.74,6.74,0,0,1,2.79-3.24c1.83-1.34,9.31-4.88,10.43-6.11.52-.57.56-1,0-1.43-.24-.21-.85-.83-1.1-1A22.58,22.58,0,0,0,23.42,2.51,21,21,0,0,0,18.76,3,20.76,20.76,0,0,0,5.9,10.74a16.25,16.25,0,0,0-3.37,9c0,.27,0,.8,0,.8h0s0,0,0,.07,0,0,0,.07h0s0,.53,0,.8a16.25,16.25,0,0,0,3.37,9,20.76,20.76,0,0,0,12.86,7.77,21,21,0,0,0,4.65.46A22.58,22.58,0,0,0,37.13,34c.25-.19.86-.82,1.1-1,.58-.48.54-.86,0-1.43C37.13,30.3,29.65,26.76,27.82,25.42Z"/></g></g></svg>