<svg xmlns="http://www.w3.org/2000/svg" viewBox="0 0 41.15 41.14"><defs><style>.a{fill:none;stroke:#231f20;stroke-miterlimit:10;stroke-width:5px;}</style></defs><title>butterfly</title><path class="a" d="M35.67,19.72a22.05,22.05,0,0,0,3-11.26c-.19-2.92-1.79-6-5.13-6-3.7,0-7.09,3.3-8.48,6.26-1.17,2.5-.41,6.67-4.46,6.8-4-.13-3.29-4.3-4.46-6.8-1.38-3-4.77-6.21-8.47-6.26-3.35,0-4.95,3-5.13,6a22.05,22.05,0,0,0,3,11.26c2.38,4-1.87,6.79-1.06,10.85.6,3,3.47,7.74,6.87,8.05s4.85-6.63,6.17-8.87a3.91,3.91,0,0,1,6.24,0C25,32,26.32,39,29.86,38.63s6.27-5.07,6.87-8.05C37.54,26.51,33.29,23.76,35.67,19.72Z"/></svg>