<svg xmlns="http://www.w3.org/2000/svg" viewBox="0 0 41.14 41.14"><defs><style>.cls-1,.cls-2{fill:none;stroke-linejoin:round;}.cls-1{stroke:#000;stroke-width:5px;}.cls-2{stroke:#fff;stroke-width:2.5px;}</style></defs><title>Flower</title><g id="Layer_2" data-name="Layer 2"><g id="Layer_1-2" data-name="Layer 1"><path class="cls-1" d="M13.69,29.43a16.81,16.81,0,0,1-2.15,1.16,6.45,6.45,0,0,1-4.73.08c-3.37-1.33-5.09-5.46-4-9a5.87,5.87,0,0,1,3.61-4c1-.36,1.94-.67,3-1a18.69,18.69,0,0,1-2.08-2.31A6.52,6.52,0,0,1,6.09,9.73a7.26,7.26,0,0,1,3-5.12,6.79,6.79,0,0,1,6-1.31,7.51,7.51,0,0,1,4.57,3.89l.5.89c.41-.79.75-1.53,1.18-2.22a6.68,6.68,0,0,1,8-2.93A7.4,7.4,0,0,1,33.87,7.4,6.1,6.1,0,0,1,33,13.26c-.54.78-1.19,1.44-1.8,2.27.51.07,1,.11,1.44.19a7.6,7.6,0,0,1,3.93,1.84,6.32,6.32,0,0,1,2,5.73,7.74,7.74,0,0,1-3,5.48,6.78,6.78,0,0,1-6.24.9,11.08,11.08,0,0,1-2.09-.81,15,15,0,0,1,.24,3A6.78,6.78,0,0,1,23.32,38a8,8,0,0,1-5.26.32A6,6,0,0,1,14.17,35a7.8,7.8,0,0,1-.59-3.77C13.61,30.68,13.65,30.1,13.69,29.43Z"/><path class="cls-2" d="M13.69,29.43a16.81,16.81,0,0,1-2.15,1.16,6.45,6.45,0,0,1-4.73.08c-3.37-1.33-5.09-5.46-4-9a5.87,5.87,0,0,1,3.61-4c1-.36,1.94-.67,3-1a18.69,18.69,0,0,1-2.08-2.31A6.52,6.52,0,0,1,6.09,9.73a7.26,7.26,0,0,1,3-5.12,6.79,6.79,0,0,1,6-1.31,7.51,7.51,0,0,1,4.57,3.89l.5.89c.41-.79.75-1.53,1.18-2.22a6.68,6.68,0,0,1,8-2.93A7.4,7.4,0,0,1,33.87,7.4,6.1,6.1,0,0,1,33,13.26c-.54.78-1.19,1.44-1.8,2.27.51.07,1,.11,1.44.19a7.6,7.6,0,0,1,3.93,1.84,6.32,6.32,0,0,1,2,5.73,7.74,7.74,0,0,1-3,5.48,6.78,6.78,0,0,1-6.24.9,11.08,11.08,0,0,1-2.09-.81,15,15,0,0,1,.24,3A6.78,6.78,0,0,1,23.32,38a8,8,0,0,1-5.26.32A6,6,0,0,1,14.17,35a7.8,7.8,0,0,1-.59-3.77C13.61,30.68,13.65,30.1,13.69,29.43Z"/></g></g></svg>