<svg xmlns="http://www.w3.org/2000/svg" viewBox="0 0 41.14 41.14"><defs><style>.cls-1,.cls-2{fill:none;stroke-linejoin:round;}.cls-1{stroke:#000;stroke-width:5px;}.cls-2{stroke:#fff;stroke-width:2.5px;}</style></defs><title>Heart</title><g id="Layer_2" data-name="Layer 2"><g id="Layer_1-2" data-name="Layer 1"><path class="cls-1" d="M38.59,12.48c-.86-11.42-12.46-13.38-18-4.1C15-.91,3.42,1.06,2.55,12.48,1.84,21.87,8.14,29.3,14.77,34.79a33.74,33.74,0,0,0,5.8,3.85,33.52,33.52,0,0,0,5.81-3.85C33,29.3,39.3,21.87,38.59,12.48Z"/><path class="cls-2" d="M38.59,12.48c-.86-11.42-12.46-13.38-18-4.1C15-.91,3.42,1.06,2.55,12.48,1.84,21.87,8.14,29.3,14.77,34.79a33.74,33.74,0,0,0,5.8,3.85,33.52,33.52,0,0,0,5.81-3.85C33,29.3,39.3,21.87,38.59,12.48Z"/></g></g></svg>