<svg xmlns="http://www.w3.org/2000/svg" viewBox="0 0 41.14 41.14"><defs><style>.cls-1,.cls-2{fill:none;stroke-miterlimit:10;}.cls-1{stroke:#000;stroke-width:5px;}.cls-2{stroke:#fff;stroke-width:2.5px;}</style></defs><title>House</title><g id="Layer_2" data-name="Layer 2"><g id="Layer_1-2" data-name="Layer 1"><path class="cls-1" d="M38.64,16.55a.83.83,0,0,0-.4-.85,9,9,0,0,1-.89-.71L28.81,8.55l-7.91-6a1,1,0,0,0-.66,0l-7.91,6L3.79,15a8.87,8.87,0,0,1-.89.71.83.83,0,0,0-.4.85q0,4.67,0,9.35c0,4,0,8,0,11.93,0,.65.16.81.83.8,3.53,0,7,0,10.56,0,.62,0,.78-.18.77-.78,0-2.92,0-8,0-11,0-.53.19-.71.74-.69l5.14,0h.09l5.14,0c.55,0,.74.15.74.69,0,2.92,0,8,0,11,0,.6.15.79.77.78,3.53,0,7,0,10.56,0,.67,0,.83-.15.83-.8,0-4,0-8,0-11.93Q38.64,21.23,38.64,16.55Z"/><path class="cls-2" d="M38.64,16.55a.83.83,0,0,0-.4-.85,9,9,0,0,1-.89-.71L28.81,8.55l-7.91-6a1,1,0,0,0-.66,0l-7.91,6L3.79,15a8.87,8.87,0,0,1-.89.71.83.83,0,0,0-.4.85q0,4.67,0,9.35c0,4,0,8,0,11.93,0,.65.16.81.83.8,3.53,0,7,0,10.56,0,.62,0,.78-.18.77-.78,0-2.92,0-8,0-11,0-.53.19-.71.74-.69l5.14,0h.09l5.14,0c.55,0,.74.15.74.69,0,2.92,0,8,0,11,0,.6.15.79.77.78,3.53,0,7,0,10.56,0,.67,0,.83-.15.83-.8,0-4,0-8,0-11.93Q38.64,21.23,38.64,16.55Z"/></g></g></svg>